<?xml version="1.0" standalone="no"?>
<!DOCTYPE svg PUBLIC "-//W3C//DTD SVG 20010904//EN"
 "http://www.w3.org/TR/2001/REC-SVG-20010904/DTD/svg10.dtd">
<svg version="1.0" xmlns="http://www.w3.org/2000/svg"
 width="512.000000pt" height="512.000000pt" viewBox="0 0 512.000000 512.000000"
 preserveAspectRatio="xMidYMid meet">
<metadata>
Created by potrace 1.14, written by Peter Selinger 2001-2017
</metadata>
<g transform="translate(0.000000,512.000000) scale(0.100000,-0.100000)"
fill="#000000" stroke="none">
<path d="M1560 4846 c-116 -32 -211 -109 -262 -214 -32 -65 -33 -70 -36 -219
l-4 -153 1302 0 1302 0 -4 148 c-3 141 -5 150 -35 214 -41 88 -113 160 -201
201 l-67 32 -975 2 c-755 1 -985 -1 -1020 -11z"/>
<path d="M4422 4645 c-75 -33 -73 -139 3 -171 33 -14 40 -13 73 3 110 54 36
216 -76 168z"/>
<path d="M422 4145 c-75 -33 -73 -139 3 -171 33 -14 40 -13 73 3 110 54 36
216 -76 168z"/>
<path d="M4455 3651 c-70 -18 -135 -72 -171 -141 -24 -47 -24 -153 0 -200 48
-93 128 -144 226 -144 98 0 178 51 226 144 24 47 24 153 0 200 -25 48 -74 98
-117 120 -42 22 -121 32 -164 21z"/>
<path d="M3245 2941 c-27 -13 -138 -120 -338 -325 -164 -168 -304 -306 -311
-306 -6 0 -41 29 -76 65 -44 44 -77 69 -103 76 -106 28 -206 -72 -178 -179 8
-30 46 -74 169 -197 87 -88 166 -166 175 -173 14 -12 67 37 435 405 444 443
452 452 438 528 -12 64 -85 125 -148 125 -13 0 -41 -9 -63 -19z"/>
<path d="M722 2645 c-21 -9 -38 -27 -48 -50 -20 -49 1 -100 51 -120 31 -14 39
-14 70 0 78 32 78 138 1 170 -41 18 -33 18 -74 0z"/>
<path d="M4322 2545 c-75 -33 -73 -139 3 -171 33 -14 40 -13 73 3 110 54 36
216 -76 168z"/>
<path d="M496 1845 c-131 -46 -175 -207 -84 -311 43 -49 83 -67 148 -67 79 0
143 40 180 113 18 35 17 129 -3 166 -33 63 -116 115 -182 114 -11 -1 -37 -7
-59 -15z"/>
<path d="M722 945 c-21 -9 -38 -27 -48 -50 -20 -49 1 -100 51 -120 31 -14 39
-14 70 0 78 32 78 138 1 170 -41 18 -33 18 -74 0z"/>
<path d="M1262 707 c3 -149 4 -154 36 -219 54 -109 161 -193 280 -218 30 -7
388 -10 1012 -8 l965 3 67 32 c88 41 160 113 201 201 30 64 32 73 35 215 l4
147 -1302 0 -1302 0 4 -153z"/>
<path d="M4222 845 c-75 -33 -73 -139 3 -171 33 -14 40 -13 73 3 110 54 36
216 -76 168z"/>
</g>
</svg>
